<mxfile host="app.diagrams.net" modified="2022-12-15T07:32:24.345Z" agent="5.0 (Windows NT 10.0; Win64; x64) AppleWebKit/537.36 (KHTML, like Gecko) Chrome/108.0.0.0 Safari/537.36 Edg/108.0.1462.46" etag="-Jo5v95J34MatogMkg89" version="20.6.2" type="github">
  <diagram id="DylYnQjOaM4mkceM2j5T" name="第 1 页">
    <mxGraphModel dx="1162" dy="773" grid="0" gridSize="10" guides="1" tooltips="1" connect="1" arrows="1" fold="1" page="1" pageScale="1" pageWidth="827" pageHeight="1169" math="0" shadow="0">
      <root>
        <mxCell id="0" />
        <mxCell id="1" parent="0" />
        <mxCell id="PNbQO5fA-VHTfyRlcOsc-1" value="BERT/ELECTRA模型" style="rounded=1;whiteSpace=wrap;html=1;" parent="1" vertex="1">
          <mxGeometry x="190" y="360" width="350" height="60" as="geometry" />
        </mxCell>
        <mxCell id="PNbQO5fA-VHTfyRlcOsc-2" value="CNN、RNN或transformer架构网络" style="rounded=1;whiteSpace=wrap;html=1;" parent="1" vertex="1">
          <mxGeometry x="190" y="210" width="350" height="60" as="geometry" />
        </mxCell>
        <mxCell id="PNbQO5fA-VHTfyRlcOsc-4" value="句子1" style="text;html=1;strokeColor=default;fillColor=none;align=center;verticalAlign=middle;whiteSpace=wrap;rounded=1;dashed=1;" parent="1" vertex="1">
          <mxGeometry x="200" y="450" width="60" height="30" as="geometry" />
        </mxCell>
        <mxCell id="PNbQO5fA-VHTfyRlcOsc-9" value="" style="endArrow=classic;html=1;rounded=0;exitX=0.5;exitY=0;exitDx=0;exitDy=0;entryX=0.114;entryY=1.028;entryDx=0;entryDy=0;entryPerimeter=0;" parent="1" source="PNbQO5fA-VHTfyRlcOsc-4" target="PNbQO5fA-VHTfyRlcOsc-1" edge="1">
          <mxGeometry width="50" height="50" relative="1" as="geometry">
            <mxPoint x="390" y="420" as="sourcePoint" />
            <mxPoint x="440" y="370" as="targetPoint" />
          </mxGeometry>
        </mxCell>
        <mxCell id="PNbQO5fA-VHTfyRlcOsc-20" value="句子2" style="text;html=1;strokeColor=default;fillColor=none;align=center;verticalAlign=middle;whiteSpace=wrap;rounded=1;dashed=1;" parent="1" vertex="1">
          <mxGeometry x="290" y="450" width="60" height="30" as="geometry" />
        </mxCell>
        <mxCell id="PNbQO5fA-VHTfyRlcOsc-21" value="" style="endArrow=classic;html=1;rounded=0;exitX=0.5;exitY=0;exitDx=0;exitDy=0;entryX=0.114;entryY=1.028;entryDx=0;entryDy=0;entryPerimeter=0;" parent="1" source="PNbQO5fA-VHTfyRlcOsc-20" edge="1">
          <mxGeometry width="50" height="50" relative="1" as="geometry">
            <mxPoint x="480" y="420" as="sourcePoint" />
            <mxPoint x="319.9000000000001" y="421.68000000000006" as="targetPoint" />
          </mxGeometry>
        </mxCell>
        <mxCell id="PNbQO5fA-VHTfyRlcOsc-22" value="句子3" style="text;html=1;strokeColor=default;fillColor=none;align=center;verticalAlign=middle;whiteSpace=wrap;rounded=1;dashed=1;" parent="1" vertex="1">
          <mxGeometry x="380" y="450" width="60" height="30" as="geometry" />
        </mxCell>
        <mxCell id="PNbQO5fA-VHTfyRlcOsc-23" value="" style="endArrow=classic;html=1;rounded=0;exitX=0.5;exitY=0;exitDx=0;exitDy=0;entryX=0.114;entryY=1.028;entryDx=0;entryDy=0;entryPerimeter=0;" parent="1" source="PNbQO5fA-VHTfyRlcOsc-22" edge="1">
          <mxGeometry width="50" height="50" relative="1" as="geometry">
            <mxPoint x="570" y="418.32" as="sourcePoint" />
            <mxPoint x="409.9000000000001" y="420.00000000000006" as="targetPoint" />
          </mxGeometry>
        </mxCell>
        <mxCell id="PNbQO5fA-VHTfyRlcOsc-24" value="句子4" style="text;html=1;strokeColor=default;fillColor=none;align=center;verticalAlign=middle;whiteSpace=wrap;rounded=1;dashed=1;" parent="1" vertex="1">
          <mxGeometry x="470" y="450" width="60" height="30" as="geometry" />
        </mxCell>
        <mxCell id="PNbQO5fA-VHTfyRlcOsc-25" value="" style="endArrow=classic;html=1;rounded=0;exitX=0.5;exitY=0;exitDx=0;exitDy=0;entryX=0.114;entryY=1.028;entryDx=0;entryDy=0;entryPerimeter=0;" parent="1" source="PNbQO5fA-VHTfyRlcOsc-24" edge="1">
          <mxGeometry width="50" height="50" relative="1" as="geometry">
            <mxPoint x="660" y="420" as="sourcePoint" />
            <mxPoint x="499.9000000000001" y="421.68000000000006" as="targetPoint" />
          </mxGeometry>
        </mxCell>
        <mxCell id="PNbQO5fA-VHTfyRlcOsc-26" value="h1" style="text;html=1;strokeColor=default;fillColor=none;align=center;verticalAlign=middle;whiteSpace=wrap;rounded=1;dashed=1;" parent="1" vertex="1">
          <mxGeometry x="200" y="300" width="60" height="30" as="geometry" />
        </mxCell>
        <mxCell id="PNbQO5fA-VHTfyRlcOsc-27" value="" style="endArrow=classic;html=1;rounded=0;exitX=0.5;exitY=0;exitDx=0;exitDy=0;entryX=0.114;entryY=1.028;entryDx=0;entryDy=0;entryPerimeter=0;" parent="1" source="PNbQO5fA-VHTfyRlcOsc-26" edge="1">
          <mxGeometry width="50" height="50" relative="1" as="geometry">
            <mxPoint x="390" y="270" as="sourcePoint" />
            <mxPoint x="229.9000000000001" y="271.68000000000006" as="targetPoint" />
          </mxGeometry>
        </mxCell>
        <mxCell id="PNbQO5fA-VHTfyRlcOsc-28" value="h2" style="text;html=1;strokeColor=default;fillColor=none;align=center;verticalAlign=middle;whiteSpace=wrap;rounded=1;dashed=1;" parent="1" vertex="1">
          <mxGeometry x="290" y="300" width="60" height="30" as="geometry" />
        </mxCell>
        <mxCell id="PNbQO5fA-VHTfyRlcOsc-29" value="" style="endArrow=classic;html=1;rounded=0;exitX=0.5;exitY=0;exitDx=0;exitDy=0;entryX=0.114;entryY=1.028;entryDx=0;entryDy=0;entryPerimeter=0;" parent="1" source="PNbQO5fA-VHTfyRlcOsc-28" edge="1">
          <mxGeometry width="50" height="50" relative="1" as="geometry">
            <mxPoint x="480" y="270" as="sourcePoint" />
            <mxPoint x="319.9000000000001" y="271.68000000000006" as="targetPoint" />
          </mxGeometry>
        </mxCell>
        <mxCell id="PNbQO5fA-VHTfyRlcOsc-30" value="h3" style="text;html=1;strokeColor=default;fillColor=none;align=center;verticalAlign=middle;whiteSpace=wrap;rounded=1;dashed=1;" parent="1" vertex="1">
          <mxGeometry x="380" y="300" width="60" height="30" as="geometry" />
        </mxCell>
        <mxCell id="PNbQO5fA-VHTfyRlcOsc-31" value="" style="endArrow=classic;html=1;rounded=0;exitX=0.5;exitY=0;exitDx=0;exitDy=0;entryX=0.114;entryY=1.028;entryDx=0;entryDy=0;entryPerimeter=0;" parent="1" source="PNbQO5fA-VHTfyRlcOsc-30" edge="1">
          <mxGeometry width="50" height="50" relative="1" as="geometry">
            <mxPoint x="570" y="268.32" as="sourcePoint" />
            <mxPoint x="409.9000000000001" y="270" as="targetPoint" />
          </mxGeometry>
        </mxCell>
        <mxCell id="PNbQO5fA-VHTfyRlcOsc-32" value="h4" style="text;html=1;strokeColor=default;fillColor=none;align=center;verticalAlign=middle;whiteSpace=wrap;rounded=1;dashed=1;" parent="1" vertex="1">
          <mxGeometry x="470" y="300" width="60" height="30" as="geometry" />
        </mxCell>
        <mxCell id="PNbQO5fA-VHTfyRlcOsc-33" value="" style="endArrow=classic;html=1;rounded=0;exitX=0.5;exitY=0;exitDx=0;exitDy=0;entryX=0.114;entryY=1.028;entryDx=0;entryDy=0;entryPerimeter=0;" parent="1" source="PNbQO5fA-VHTfyRlcOsc-32" edge="1">
          <mxGeometry width="50" height="50" relative="1" as="geometry">
            <mxPoint x="660" y="270" as="sourcePoint" />
            <mxPoint x="499.9000000000001" y="271.68000000000006" as="targetPoint" />
          </mxGeometry>
        </mxCell>
        <mxCell id="PNbQO5fA-VHTfyRlcOsc-34" value="" style="endArrow=classic;html=1;rounded=0;exitX=0.5;exitY=0;exitDx=0;exitDy=0;entryX=0.114;entryY=1.028;entryDx=0;entryDy=0;entryPerimeter=0;" parent="1" edge="1">
          <mxGeometry width="50" height="50" relative="1" as="geometry">
            <mxPoint x="230.05" y="360" as="sourcePoint" />
            <mxPoint x="229.9500000000001" y="331.68000000000006" as="targetPoint" />
          </mxGeometry>
        </mxCell>
        <mxCell id="PNbQO5fA-VHTfyRlcOsc-35" value="" style="endArrow=classic;html=1;rounded=0;exitX=0.5;exitY=0;exitDx=0;exitDy=0;entryX=0.114;entryY=1.028;entryDx=0;entryDy=0;entryPerimeter=0;" parent="1" edge="1">
          <mxGeometry width="50" height="50" relative="1" as="geometry">
            <mxPoint x="320.05" y="360" as="sourcePoint" />
            <mxPoint x="319.9500000000001" y="331.68000000000006" as="targetPoint" />
          </mxGeometry>
        </mxCell>
        <mxCell id="PNbQO5fA-VHTfyRlcOsc-36" value="" style="endArrow=classic;html=1;rounded=0;" parent="1" edge="1">
          <mxGeometry width="50" height="50" relative="1" as="geometry">
            <mxPoint x="410" y="360" as="sourcePoint" />
            <mxPoint x="410" y="330" as="targetPoint" />
          </mxGeometry>
        </mxCell>
        <mxCell id="PNbQO5fA-VHTfyRlcOsc-37" value="" style="endArrow=classic;html=1;rounded=0;exitX=0.5;exitY=0;exitDx=0;exitDy=0;entryX=0.114;entryY=1.028;entryDx=0;entryDy=0;entryPerimeter=0;" parent="1" edge="1">
          <mxGeometry width="50" height="50" relative="1" as="geometry">
            <mxPoint x="500.05" y="360" as="sourcePoint" />
            <mxPoint x="499.9500000000001" y="331.68000000000006" as="targetPoint" />
          </mxGeometry>
        </mxCell>
        <mxCell id="PNbQO5fA-VHTfyRlcOsc-48" value="0/1" style="text;html=1;strokeColor=default;fillColor=none;align=center;verticalAlign=middle;whiteSpace=wrap;rounded=1;dashed=1;" parent="1" vertex="1">
          <mxGeometry x="200" y="129" width="60" height="30" as="geometry" />
        </mxCell>
        <mxCell id="PNbQO5fA-VHTfyRlcOsc-49" value="0/1" style="text;html=1;strokeColor=default;fillColor=none;align=center;verticalAlign=middle;whiteSpace=wrap;rounded=1;dashed=1;" parent="1" vertex="1">
          <mxGeometry x="290" y="129" width="60" height="30" as="geometry" />
        </mxCell>
        <mxCell id="PNbQO5fA-VHTfyRlcOsc-50" value="0/1" style="text;html=1;strokeColor=default;fillColor=none;align=center;verticalAlign=middle;whiteSpace=wrap;rounded=1;dashed=1;" parent="1" vertex="1">
          <mxGeometry x="380" y="129" width="60" height="30" as="geometry" />
        </mxCell>
        <mxCell id="PNbQO5fA-VHTfyRlcOsc-51" value="0/1" style="text;html=1;strokeColor=default;fillColor=none;align=center;verticalAlign=middle;whiteSpace=wrap;rounded=1;dashed=1;" parent="1" vertex="1">
          <mxGeometry x="470" y="129" width="60" height="30" as="geometry" />
        </mxCell>
        <mxCell id="PNbQO5fA-VHTfyRlcOsc-52" value="" style="endArrow=classic;html=1;rounded=0;exitX=0.5;exitY=0;exitDx=0;exitDy=0;entryX=0.5;entryY=1;entryDx=0;entryDy=0;" parent="1" edge="1" target="PNbQO5fA-VHTfyRlcOsc-48">
          <mxGeometry width="50" height="50" relative="1" as="geometry">
            <mxPoint x="230.04999999999995" y="210" as="sourcePoint" />
            <mxPoint x="229.95000000000005" y="181.68000000000006" as="targetPoint" />
          </mxGeometry>
        </mxCell>
        <mxCell id="PNbQO5fA-VHTfyRlcOsc-53" value="" style="endArrow=classic;html=1;rounded=0;exitX=0.5;exitY=0;exitDx=0;exitDy=0;entryX=0.5;entryY=1;entryDx=0;entryDy=0;" parent="1" edge="1" target="PNbQO5fA-VHTfyRlcOsc-49">
          <mxGeometry width="50" height="50" relative="1" as="geometry">
            <mxPoint x="320.04999999999995" y="210" as="sourcePoint" />
            <mxPoint x="319.95000000000005" y="181.68000000000006" as="targetPoint" />
          </mxGeometry>
        </mxCell>
        <mxCell id="PNbQO5fA-VHTfyRlcOsc-54" value="" style="endArrow=classic;html=1;rounded=0;entryX=0.5;entryY=1;entryDx=0;entryDy=0;" parent="1" edge="1" target="PNbQO5fA-VHTfyRlcOsc-50">
          <mxGeometry width="50" height="50" relative="1" as="geometry">
            <mxPoint x="410" y="210" as="sourcePoint" />
            <mxPoint x="406" y="174" as="targetPoint" />
          </mxGeometry>
        </mxCell>
        <mxCell id="PNbQO5fA-VHTfyRlcOsc-55" value="" style="endArrow=classic;html=1;rounded=0;exitX=0.5;exitY=0;exitDx=0;exitDy=0;entryX=0.5;entryY=1;entryDx=0;entryDy=0;" parent="1" edge="1" target="PNbQO5fA-VHTfyRlcOsc-51">
          <mxGeometry width="50" height="50" relative="1" as="geometry">
            <mxPoint x="500.04999999999995" y="210" as="sourcePoint" />
            <mxPoint x="499.95000000000005" y="181.68000000000006" as="targetPoint" />
          </mxGeometry>
        </mxCell>
        <mxCell id="D7TorbNY_m7ccGMIV4Rw-1" value="适当规则" style="rounded=1;whiteSpace=wrap;html=1;" vertex="1" parent="1">
          <mxGeometry x="588" y="169" width="86" height="33" as="geometry" />
        </mxCell>
        <mxCell id="D7TorbNY_m7ccGMIV4Rw-2" value="" style="endArrow=classic;html=1;rounded=0;exitX=0;exitY=0.5;exitDx=0;exitDy=0;" edge="1" parent="1" source="D7TorbNY_m7ccGMIV4Rw-1">
          <mxGeometry width="50" height="50" relative="1" as="geometry">
            <mxPoint x="387" y="423" as="sourcePoint" />
            <mxPoint x="501" y="186" as="targetPoint" />
          </mxGeometry>
        </mxCell>
        <mxCell id="D7TorbNY_m7ccGMIV4Rw-3" value="" style="endArrow=classic;html=1;rounded=0;" edge="1" parent="1">
          <mxGeometry width="50" height="50" relative="1" as="geometry">
            <mxPoint x="501" y="186" as="sourcePoint" />
            <mxPoint x="408" y="186" as="targetPoint" />
          </mxGeometry>
        </mxCell>
        <mxCell id="D7TorbNY_m7ccGMIV4Rw-4" value="" style="endArrow=classic;html=1;rounded=0;" edge="1" parent="1">
          <mxGeometry width="50" height="50" relative="1" as="geometry">
            <mxPoint x="414" y="185" as="sourcePoint" />
            <mxPoint x="321" y="185" as="targetPoint" />
          </mxGeometry>
        </mxCell>
        <mxCell id="D7TorbNY_m7ccGMIV4Rw-5" value="" style="endArrow=classic;html=1;rounded=0;" edge="1" parent="1">
          <mxGeometry width="50" height="50" relative="1" as="geometry">
            <mxPoint x="322" y="185" as="sourcePoint" />
            <mxPoint x="229" y="185" as="targetPoint" />
          </mxGeometry>
        </mxCell>
      </root>
    </mxGraphModel>
  </diagram>
</mxfile>
